<svg xmlns="http://www.w3.org/2000/svg" viewBox="0 0 540 250"
     fill="none" font-family="-apple-system, BlinkMacSystemFont, 'Segoe UI', Roboto, sans-serif">

  <!-- Header row -->
  <rect x="0" y="0" width="160" height="34" rx="0" fill="#1e3a5f"/>
  <text x="80" y="22" text-anchor="middle"
        fill="#ffffff" font-size="12" font-weight="600">Claim group</text>

  <rect x="162" y="0" width="124" height="34" rx="0" fill="#1e3a5f"/>
  <text x="224" y="22" text-anchor="middle"
        fill="#ffffff" font-size="12" font-weight="600">Identity</text>

  <rect x="288" y="0" width="124" height="34" rx="0" fill="#1e3a5f"/>
  <text x="350" y="22" text-anchor="middle"
        fill="#ffffff" font-size="12" font-weight="600">Enrollment</text>

  <rect x="414" y="0" width="124" height="34" rx="0" fill="#1e3a5f"/>
  <text x="476" y="22" text-anchor="middle"
        fill="#ffffff" font-size="12" font-weight="600">Payment</text>

  <!-- Row 1: Type declarations -->
  <rect x="0" y="36" width="160" height="32" fill="#faf9f6" stroke="#ddd8d3" stroke-width="0.5"/>
  <text x="12" y="57" fill="#1e1b18" font-size="12">Type declarations</text>

  <rect x="162" y="36" width="124" height="32" fill="#dcfce7" stroke="#ddd8d3" stroke-width="0.5"/>
  <text x="224" y="57" text-anchor="middle" fill="#166534" font-size="11" font-weight="500">Always</text>

  <rect x="288" y="36" width="124" height="32" fill="#dcfce7" stroke="#ddd8d3" stroke-width="0.5"/>
  <text x="350" y="57" text-anchor="middle" fill="#166534" font-size="11" font-weight="500">Always</text>

  <rect x="414" y="36" width="124" height="32" fill="#dcfce7" stroke="#ddd8d3" stroke-width="0.5"/>
  <text x="476" y="57" text-anchor="middle" fill="#166534" font-size="11" font-weight="500">Always</text>

  <!-- Row 2: Person identity -->
  <rect x="0" y="70" width="160" height="32" fill="#faf9f6" stroke="#ddd8d3" stroke-width="0.5"/>
  <text x="12" y="91" fill="#1e1b18" font-size="12">Person identity</text>

  <rect x="162" y="70" width="124" height="32" fill="#fef3c7" stroke="#ddd8d3" stroke-width="0.5"/>
  <text x="224" y="91" text-anchor="middle" fill="#92400e" font-size="11" font-weight="500">Selective</text>

  <rect x="288" y="70" width="124" height="32" fill="#fef3c7" stroke="#ddd8d3" stroke-width="0.5"/>
  <text x="350" y="91" text-anchor="middle" fill="#92400e" font-size="11" font-weight="500">Selective</text>

  <rect x="414" y="70" width="124" height="32" fill="#fef3c7" stroke="#ddd8d3" stroke-width="0.5"/>
  <text x="476" y="91" text-anchor="middle" fill="#92400e" font-size="11" font-weight="500">Selective</text>

  <!-- Row 3: Status and dates -->
  <rect x="0" y="104" width="160" height="32" fill="#faf9f6" stroke="#ddd8d3" stroke-width="0.5"/>
  <text x="12" y="125" fill="#1e1b18" font-size="12">Status and dates</text>

  <rect x="162" y="104" width="124" height="32" fill="#f0ece7" stroke="#ddd8d3" stroke-width="0.5"/>
  <text x="224" y="125" text-anchor="middle" fill="#9a958f" font-size="11">n/a</text>

  <rect x="288" y="104" width="124" height="32" fill="#dcfce7" stroke="#ddd8d3" stroke-width="0.5"/>
  <text x="350" y="125" text-anchor="middle" fill="#166534" font-size="11" font-weight="500">Always</text>

  <rect x="414" y="104" width="124" height="32" fill="#dcfce7" stroke="#ddd8d3" stroke-width="0.5"/>
  <text x="476" y="125" text-anchor="middle" fill="#166534" font-size="11" font-weight="500">Always</text>

  <!-- Row 4: Program reference -->
  <rect x="0" y="138" width="160" height="32" fill="#faf9f6" stroke="#ddd8d3" stroke-width="0.5"/>
  <text x="12" y="159" fill="#1e1b18" font-size="12">Program reference</text>

  <rect x="162" y="138" width="124" height="32" fill="#f0ece7" stroke="#ddd8d3" stroke-width="0.5"/>
  <text x="224" y="159" text-anchor="middle" fill="#9a958f" font-size="11">n/a</text>

  <rect x="288" y="138" width="124" height="32" fill="#fef3c7" stroke="#ddd8d3" stroke-width="0.5"/>
  <text x="350" y="159" text-anchor="middle" fill="#92400e" font-size="11" font-weight="500">Selective</text>

  <rect x="414" y="138" width="124" height="32" fill="#f0ece7" stroke="#ddd8d3" stroke-width="0.5"/>
  <text x="476" y="159" text-anchor="middle" fill="#9a958f" font-size="11">n/a</text>

  <!-- Row 5: Financial details -->
  <rect x="0" y="172" width="160" height="32" fill="#faf9f6" stroke="#ddd8d3" stroke-width="0.5"/>
  <text x="12" y="193" fill="#1e1b18" font-size="12">Financial details</text>

  <rect x="162" y="172" width="124" height="32" fill="#f0ece7" stroke="#ddd8d3" stroke-width="0.5"/>
  <text x="224" y="193" text-anchor="middle" fill="#9a958f" font-size="11">n/a</text>

  <rect x="288" y="172" width="124" height="32" fill="#f0ece7" stroke="#ddd8d3" stroke-width="0.5"/>
  <text x="350" y="193" text-anchor="middle" fill="#9a958f" font-size="11">n/a</text>

  <rect x="414" y="172" width="124" height="32" fill="#fef3c7" stroke="#ddd8d3" stroke-width="0.5"/>
  <text x="476" y="193" text-anchor="middle" fill="#92400e" font-size="11" font-weight="500">Selective</text>

  <!-- Row 6: Transaction reference -->
  <rect x="0" y="206" width="160" height="32" fill="#faf9f6" stroke="#ddd8d3" stroke-width="0.5"/>
  <text x="12" y="227" fill="#1e1b18" font-size="12">Transaction reference</text>

  <rect x="162" y="206" width="124" height="32" fill="#f0ece7" stroke="#ddd8d3" stroke-width="0.5"/>
  <text x="224" y="227" text-anchor="middle" fill="#9a958f" font-size="11">n/a</text>

  <rect x="288" y="206" width="124" height="32" fill="#f0ece7" stroke="#ddd8d3" stroke-width="0.5"/>
  <text x="350" y="227" text-anchor="middle" fill="#9a958f" font-size="11">n/a</text>

  <rect x="414" y="206" width="124" height="32" fill="#fef3c7" stroke="#ddd8d3" stroke-width="0.5"/>
  <text x="476" y="227" text-anchor="middle" fill="#92400e" font-size="11" font-weight="500">Selective</text>
</svg>
